{
  "accessors": [
    {
      "bufferView": 2,
      "componentType": 5126,
      "count": 34,
      "max": [
        0.09439730644226074,
        0.20361769199371338,
        0.20361778140068054
      ],
      "min": [
        -0.09439730644226074,
        -0.20361769199371338,
        -0.203617662191391
      ],
      "type": "VEC3"
    },
    {
      "bufferView": 2,
      "byteOffset": 408,
      "componentType": 5126,
      "count": 34,
      "max": [
        0.6302553415298462,
        0.7763879895210266,
        0.7763880491256714
      ],
      "min": [
        -0.630255401134491,
        -0.7763879299163818,
        -0.7763880491256714
      ],
      "type": "VEC3"
    },
    {
      "bufferView": 1,
      "componentType": 5126,
      "count": 34,
      "max": [
        0.9819268584251404,
        0.8205372095108032
      ],
      "min": [
        0.638824462890625,
        0.5123077034950256
      ],
      "type": "VEC2"
    },
    {
      "bufferView": 0,
      "componentType": 5125,
      "count": 84,
      "type": "SCALAR"
    },
    {
      "bufferView": 2,
      "byteOffset": 816,
      "componentType": 5126,
      "count": 34,
      "max": [
        0.09439730644226074,
        0.20361769199371338,
        0.20361778140068054
      ],
      "min": [
        -0.09439730644226074,
        -0.20361769199371338,
        -0.203617662191391
      ],
      "type": "VEC3"
    },
    {
      "bufferView": 2,
      "byteOffset": 1224,
      "componentType": 5126,
      "count": 34,
      "max": [
        0.6302553415298462,
        0.7763879895210266,
        0.7763880491256714
      ],
      "min": [
        -0.630255401134491,
        -0.7763879299163818,
        -0.7763880491256714
      ],
      "type": "VEC3"
    },
    {
      "bufferView": 1,
      "byteOffset": 272,
      "componentType": 5126,
      "count": 34,
      "max": [
        0.9819268584251404,
        0.8205372095108032
      ],
      "min": [
        0.638824462890625,
        0.5123077034950256
      ],
      "type": "VEC2"
    },
    {
      "bufferView": 0,
      "byteOffset": 336,
      "componentType": 5125,
      "count": 84,
      "type": "SCALAR"
    },
    {
      "bufferView": 2,
      "byteOffset": 1632,
      "componentType": 5126,
      "count": 34,
      "max": [
        0.09439730644226074,
        0.20361769199371338,
        0.20361778140068054
      ],
      "min": [
        -0.09439730644226074,
        -0.20361769199371338,
        -0.203617662191391
      ],
      "type": "VEC3"
    },
    {
      "bufferView": 2,
      "byteOffset": 2040,
      "componentType": 5126,
      "count": 34,
      "max": [
        0.6302553415298462,
        0.7763879895210266,
        0.7763880491256714
      ],
      "min": [
        -0.630255401134491,
        -0.7763879299163818,
        -0.7763880491256714
      ],
      "type": "VEC3"
    },
    {
      "bufferView": 1,
      "byteOffset": 544,
      "componentType": 5126,
      "count": 34,
      "max": [
        0.9819268584251404,
        0.8205372095108032
      ],
      "min": [
        0.638824462890625,
        0.5123077034950256
      ],
      "type": "VEC2"
    },
    {
      "bufferView": 0,
      "byteOffset": 672,
      "componentType": 5125,
      "count": 84,
      "type": "SCALAR"
    },
    {
      "bufferView": 2,
      "byteOffset": 2448,
      "componentType": 5126,
      "count": 34,
      "max": [
        0.09439730644226074,
        0.20361769199371338,
        0.20361778140068054
      ],
      "min": [
        -0.09439730644226074,
        -0.20361769199371338,
        -0.203617662191391
      ],
      "type": "VEC3"
    },
    {
      "bufferView": 2,
      "byteOffset": 2856,
      "componentType": 5126,
      "count": 34,
      "max": [
        0.6302553415298462,
        0.7763879895210266,
        0.7763880491256714
      ],
      "min": [
        -0.630255401134491,
        -0.7763879299163818,
        -0.7763880491256714
      ],
      "type": "VEC3"
    },
    {
      "bufferView": 1,
      "byteOffset": 816,
      "componentType": 5126,
      "count": 34,
      "max": [
        0.9819268584251404,
        0.8205372095108032
      ],
      "min": [
        0.638824462890625,
        0.5123077034950256
      ],
      "type": "VEC2"
    },
    {
      "bufferView": 0,
      "byteOffset": 1008,
      "componentType": 5125,
      "count": 84,
      "type": "SCALAR"
    },
    {
      "bufferView": 2,
      "byteOffset": 3264,
      "componentType": 5126,
      "count": 308,
      "max": [
        0.6211870908737183,
        1.547218918800354,
        0.8008788824081421
      ],
      "min": [
        -0.6211870908737183,
        -1.537872314453125,
        0.04518818110227585
      ],
      "type": "VEC3"
    },
    {
      "bufferView": 2,
      "byteOffset": 6960,
      "componentType": 5126,
      "count": 308,
      "max": [
        0.9997088313102722,
        0.9986842274665833,
        0.9999911785125732
      ],
      "min": [
        -0.9997088313102722,
        -0.99531090259552,
        -0.9998006820678711
      ],
      "type": "VEC3"
    },
    {
      "bufferView": 1,
      "byteOffset": 1088,
      "componentType": 5126,
      "count": 308,
      "max": [
        0.9913138747215271,
        0.9996876120567322
      ],
      "min": [
        0.0003123423957731575,
        0.000312357529764995
      ],
      "type": "VEC2"
    },
    {
      "bufferView": 0,
      "byteOffset": 1344,
      "componentType": 5125,
      "count": 810,
      "type": "SCALAR"
    },
    {
      "bufferView": 2,
      "byteOffset": 10656,
      "componentType": 5126,
      "count": 4,
      "max": [
        1.0,
        1.0,
        0.0
      ],
      "min": [
        -1.0,
        -1.0,
        0.0
      ],
      "type": "VEC3"
    },
    {
      "bufferView": 2,
      "byteOffset": 10704,
      "componentType": 5126,
      "count": 4,
      "max": [
        0.0,
        0.0,
        1.0
      ],
      "min": [
        0.0,
        0.0,
        1.0
      ],
      "type": "VEC3"
    },
    {
      "bufferView": 1,
      "byteOffset": 3552,
      "componentType": 5126,
      "count": 4,
      "max": [
        1.0,
        1.0
      ],
      "min": [
        0.0,
        0.0
      ],
      "type": "VEC2"
    },
    {
      "bufferView": 0,
      "byteOffset": 4584,
      "componentType": 5125,
      "count": 6,
      "type": "SCALAR"
    }
  ],
  "asset": {
    "extras": {
      "author": "egor.zuyev33 (https://sketchfab.com/egor.zuyev33)",
      "license": "SKETCHFAB Standard (https://sketchfab.com/licenses)",
      "source": "https://sketchfab.com/3d-models/low-poly-pixelated-sport-car-b7b5664d19a2469494bd7f0c1a29431c",
      "title": "Low-poly pixelated sport car"
    },
    "generator": "Sketchfab-16.95.0",
    "version": "2.0"
  },
  "bufferViews": [
    {
      "buffer": 0,
      "byteLength": 4608,
      "name": "floatBufferViews",
      "target": 34963
    },
    {
      "buffer": 0,
      "byteLength": 3584,
      "byteOffset": 4608,
      "byteStride": 8,
      "name": "floatBufferViews",
      "target": 34962
    },
    {
      "buffer": 0,
      "byteLength": 10752,
      "byteOffset": 8192,
      "byteStride": 12,
      "name": "floatBufferViews",
      "target": 34962
    }
  ],
  "buffers": [
    {
      "byteLength": 18944,
      "uri": "scene.bin"
    }
  ],
  "extensionsUsed": [
    "KHR_materials_specular"
  ],
  "images": [
    {
      "uri": "textures/Material_baseColor.png"
    },
    {
      "uri": "textures/Material.005_baseColor.png"
    }
  ],
  "materials": [
    {
      "doubleSided": true,
      "name": "Material",
      "pbrMetallicRoughness": {
        "baseColorTexture": {
          "index": 0
        },
        "metallicFactor": 0.0
      }
    },
    {
      "extensions": {
        "KHR_materials_specular": {
          "specularColorFactor": [
            1.0,
            1.0,
            1.0
          ],
          "specularFactor": 0.0
        }
      },
      "name": "Material.005",
      "pbrMetallicRoughness": {
        "baseColorTexture": {
          "index": 1
        },
        "metallicFactor": 0.0
      }
    }
  ],
  "meshes": [
    {
      "name": "Cylinder_Material_0",
      "primitives": [
        {
          "attributes": {
            "NORMAL": 1,
            "POSITION": 0,
            "TEXCOORD_0": 2
          },
          "indices": 3,
          "material": 0,
          "mode": 4
        }
      ]
    },
    {
      "name": "Cylinder.001_Material_0",
      "primitives": [
        {
          "attributes": {
            "NORMAL": 5,
            "POSITION": 4,
            "TEXCOORD_0": 6
          },
          "indices": 7,
          "material": 0,
          "mode": 4
        }
      ]
    },
    {
      "name": "Cylinder.002_Material_0",
      "primitives": [
        {
          "attributes": {
            "NORMAL": 9,
            "POSITION": 8,
            "TEXCOORD_0": 10
          },
          "indices": 11,
          "material": 0,
          "mode": 4
        }
      ]
    },
    {
      "name": "Cylinder.003_Material_0",
      "primitives": [
        {
          "attributes": {
            "NORMAL": 13,
            "POSITION": 12,
            "TEXCOORD_0": 14
          },
          "indices": 15,
          "material": 0,
          "mode": 4
        }
      ]
    },
    {
      "name": "Plane_Material_0",
      "primitives": [
        {
          "attributes": {
            "NORMAL": 17,
            "POSITION": 16,
            "TEXCOORD_0": 18
          },
          "indices": 19,
          "material": 0,
          "mode": 4
        }
      ]
    },
    {
      "name": "Plane.001_Material.005_0",
      "primitives": [
        {
          "attributes": {
            "NORMAL": 21,
            "POSITION": 20,
            "TEXCOORD_0": 22
          },
          "indices": 23,
          "material": 1,
          "mode": 4
        }
      ]
    }
  ],
  "nodes": [
    {
      "children": [
        1
      ],
      "matrix": [
        1.3102823495864868,
        -2.1070946888322374e-16,
        -7.018035115820789e-32,
        0.0,
        1.0491216442749551e-32,
        5.01650595537397e-16,
        -1.3102823495864868,
        0.0,
        2.1070946888322374e-16,
        1.3102823495864868,
        5.01650595537397e-16,
        0.0,
        0.0,
        0.0,
        0.0,
        1.0
      ],
      "name": "Sketchfab_model"
    },
    {
      "children": [
        2
      ],
      "matrix": [
        0.009999999776482582,
        0.0,
        0.0,
        0.0,
        0.0,
        0.0,
        0.009999999776482582,
        0.0,
        0.0,
        -0.009999999776482582,
        0.0,
        0.0,
        0.0,
        0.0,
        0.0,
        1.0
      ],
      "name": "ea588453d1d1406a86cdbfa119e64d83.fbx"
    },
    {
      "children": [
        3,
        5,
        7,
        9,
        11,
        13,
        15
      ],
      "name": "RootNode"
    },
    {
      "children": [
        4
      ],
      "matrix": [
        -32.30410088379241,
        -18.7377839446766,
        92.76497463446202,
        0.0,
        -6.162253213576923,
        98.22879885830835,
        17.695514574736826,
        0.0,
        -94.43766042853771,
        -3.575035405350979e-05,
        -32.88659746436111,
        0.0,
        236.99998474121094,
        156.0,
        -736.0,
        1.0
      ],
      "name": "Camera"
    },
    {
      "name": "Object_4"
    },
    {
      "children": [
        6
      ],
      "matrix": [
        100.0,
        0.0,
        0.0,
        0.0,
        -0.0,
        -1.629206793918314e-05,
        -99.99999999999868,
        0.0,
        0.0,
        99.99999999999868,
        -1.629206793918314e-05,
        0.0,
        -53.84928512573242,
        20.67885971069336,
        83.50302124023438,
        1.0
      ],
      "name": "Cylinder"
    },
    {
      "mesh": 0,
      "name": "Cylinder_Material_0"
    },
    {
      "children": [
        8
      ],
      "matrix": [
        -99.99999999999885,
        1.5099579909783707e-05,
        2.6469779601696886e-21,
        0.0,
        2.46003382353768e-12,
        1.6292068005796523e-05,
        -99.99999999999865,
        0.0,
        -1.5099579909783506e-05,
        -99.99999999999753,
        -1.6292067983592062e-05,
        0.0,
        53.84929656982422,
        20.67885971069336,
        83.50299835205078,
        1.0
      ],
      "name": "Cylinder.001"
    },
    {
      "mesh": 1,
      "name": "Cylinder.001_Material_0"
    },
    {
      "children": [
        10
      ],
      "matrix": [
        -99.99999999999885,
        1.5099579909783707e-05,
        2.6469779601696886e-21,
        0.0,
        2.46003382353768e-12,
        1.6292068005796523e-05,
        -99.99999999999865,
        0.0,
        -1.5099579909783506e-05,
        -99.99999999999753,
        -1.6292067983592062e-05,
        0.0,
        53.84929656982422,
        20.67885971069336,
        -87.4080810546875,
        1.0
      ],
      "name": "Cylinder.002"
    },
    {
      "mesh": 2,
      "name": "Cylinder.002_Material_0"
    },
    {
      "children": [
        12
      ],
      "matrix": [
        100.0,
        0.0,
        0.0,
        0.0,
        -0.0,
        -1.629206793918314e-05,
        -99.99999999999868,
        0.0,
        0.0,
        99.99999999999868,
        -1.629206793918314e-05,
        0.0,
        -53.84928512573242,
        20.67885971069336,
        -87.40806579589844,
        1.0
      ],
      "name": "Cylinder.003"
    },
    {
      "mesh": 3,
      "name": "Cylinder.003_Material_0"
    },
    {
      "children": [
        14
      ],
      "matrix": [
        100.0,
        0.0,
        0.0,
        0.0,
        0.0,
        -1.629206793918314e-05,
        -99.99999999999868,
        0.0,
        0.0,
        99.99999999999868,
        -1.629206793918314e-05,
        0.0,
        0.0,
        2.4241902828216553,
        0.0,
        1.0
      ],
      "name": "Plane"
    },
    {
      "mesh": 4,
      "name": "Plane_Material_0"
    },
    {
      "children": [
        16
      ],
      "matrix": [
        300.0,
        0.0,
        0.0,
        0.0,
        0.0,
        -4.8876203817549424e-05,
        -299.999999999996,
        0.0,
        0.0,
        299.999999999996,
        -4.8876203817549424e-05,
        0.0,
        8.930425643920898,
        0.0,
        0.0,
        1.0
      ],
      "name": "Plane.001"
    },
    {
      "mesh": 5,
      "name": "Plane.001_Material.005_0"
    }
  ],
  "samplers": [
    {
      "magFilter": 9728,
      "minFilter": 9728,
      "wrapS": 10497,
      "wrapT": 10497
    }
  ],
  "scene": 0,
  "scenes": [
    {
      "name": "Sketchfab_Scene",
      "nodes": [
        0
      ]
    }
  ],
  "textures": [
    {
      "sampler": 0,
      "source": 0
    },
    {
      "sampler": 0,
      "source": 1
    }
  ]
}
